# xmcd
#
# Track frame offsets: 
#        150
#        20870
#        41344
#        55570
#        66128
#        80534
#        92220
#        104482
#        116928
#        127443
#        137121
#        148336
#        160564
#        174641
#        186170
#        202221
#        252128
#        264184
#        276429
#        289659
#
# Disc length: 4101 seconds
#
# Revision: 5
# Processed by: cddbd v1.5.2PL0 Copyright (c) Steve Scherf et al.
# Submitted via: ExactAudioCopy v1.0b2
#
DISCID=3b100314
DTITLE=Creedence Clearwater Revival - Chronicle
DYEAR=1976
DGENRE=Rock
TTITLE0=Susie Q
TTITLE1=I Put a Spell on You
TTITLE2=Proud Mary
TTITLE3=Bad Moon Rising
TTITLE4=Lodi
TTITLE5=Green River
TTITLE6=Commotion
TTITLE7=Down on the Corner
TTITLE8=Fortunate Son
TTITLE9=Travelin' Band
TTITLE10=Who'll Stop the Rain?
TTITLE11=Up Around the Bend
TTITLE12=Run Through the Jungle
TTITLE13=Lookin' Out My Back Door
TTITLE14=Long As I Can See the Light
TTITLE15=I Heard It Through the Grapevine
TTITLE16=Have You Ever Seen the Rain?
TTITLE17=Hey Tonight
TTITLE18=Sweet Hitch-Hiker
TTITLE19=Someday Never Comes
EXTD=\t\t
EXTT0=
EXTT1=
EXTT2=
EXTT3=
EXTT4=
EXTT5=
EXTT6=
EXTT7=
EXTT8=
EXTT9=
EXTT10=
EXTT11=
EXTT12=
EXTT13=
EXTT14=
EXTT15=
EXTT16=
EXTT17=
EXTT18=
EXTT19=
PLAYORDER=
